<svg width="268" height="107" viewBox="0 0 268 107" fill="none" xmlns="http://www.w3.org/2000/svg">
<path d="M108.388 48.468C108.66 48.9213 108.66 49.3747 108.388 49.828C108.116 50.236 107.731 50.4173 107.232 50.372C106.779 50.2813 106.303 50.1453 105.804 49.964C105.351 49.7373 104.92 49.5787 104.512 49.488C103.877 49.352 103.152 49.284 102.336 49.284C101.52 49.2387 100.795 49.2613 100.16 49.352C99.6613 49.3973 99.14 49.6013 98.596 49.964C98.0973 50.2813 97.576 50.5533 97.032 50.78C96.896 50.8253 96.7373 50.8253 96.556 50.78C96.42 50.7347 96.284 50.7347 96.148 50.78C95.9667 50.916 95.808 51.0973 95.672 51.324C95.5813 51.5053 95.4453 51.6413 95.264 51.732C94.992 51.8227 94.6973 51.8907 94.38 51.936C94.108 51.9813 93.8587 52.072 93.632 52.208C93.3147 52.3893 93.02 52.6613 92.748 53.024C92.476 53.3867 92.0907 53.6813 91.592 53.908C91.184 54.18 90.8213 54.4747 90.504 54.792C89.0533 56.424 87.8293 58.2147 86.832 60.164C85.88 62.1133 85.1773 64.244 84.724 66.556C84.588 67.0093 84.588 67.508 84.724 68.052C84.8147 68.3693 84.8147 68.7093 84.724 69.072C84.6787 69.3893 84.6787 69.7293 84.724 70.092C84.9053 71.0893 85.4493 71.996 86.356 72.812C87.308 73.5827 88.1467 74.0813 88.872 74.308C90.0053 74.716 91.1613 74.8293 92.34 74.648C93.5187 74.4213 94.6747 74.1267 95.808 73.764C96.9413 73.356 98.0067 73.1067 99.004 73.016C99.412 72.9707 99.7973 73.1067 100.16 73.424C100.568 73.696 100.795 74.0587 100.84 74.512C100.84 74.6027 100.863 74.6707 100.908 74.716C101.18 75.6227 101.044 76.416 100.5 77.096C100.319 77.368 100.069 77.5947 99.752 77.776C99.48 77.9573 99.1853 78.116 98.868 78.252C95.6493 79.612 92.3173 79.9747 88.872 79.34C87.0133 78.9773 85.4493 78.388 84.18 77.572C82.9107 76.7107 81.868 75.464 81.052 73.832C80.916 73.56 80.78 73.288 80.644 73.016C80.508 72.6987 80.3947 72.404 80.304 72.132C80.168 71.8147 80.0093 71.384 79.828 70.84C79.692 70.296 79.5787 69.8653 79.488 69.548C78.9893 67.508 78.8987 65.468 79.216 63.428C79.5333 61.388 80.0093 59.484 80.644 57.716C81.2333 56.084 82.004 54.4973 82.956 52.956C83.908 51.3693 85.0187 49.9867 86.288 48.808C86.424 48.672 86.56 48.5587 86.696 48.468C86.8773 48.332 87.0587 48.2187 87.24 48.128C88.6453 47.448 90.096 46.5867 91.592 45.544C93.088 44.456 94.6747 43.7987 96.352 43.572C98.6187 43.2547 100.591 43.4587 102.268 44.184C103.991 44.9093 105.577 45.7933 107.028 46.836C107.572 47.1533 108.003 47.652 108.32 48.332C108.365 48.3773 108.388 48.4227 108.388 48.468ZM153.008 51.936C152.192 54.4747 151.467 56.9907 150.832 59.484C150.243 61.9773 149.54 64.4253 148.724 66.828C148.679 67.0093 148.634 67.1907 148.588 67.372C148.588 67.508 148.588 67.6893 148.588 67.916C148.543 69.0947 148.362 70.228 148.044 71.316C147.772 72.404 147.546 73.6053 147.364 74.92C147.364 75.1013 147.274 75.192 147.092 75.192C146.956 75.192 146.911 75.26 146.956 75.396C147.047 76.348 147.002 77.232 146.82 78.048C146.639 78.8187 146.503 79.2493 146.412 79.34C146.322 79.34 146.276 79.408 146.276 79.544C145.959 79.9067 145.574 80.0653 145.12 80.02C144.712 80.02 144.282 79.9293 143.828 79.748C142.876 79.4307 142.219 78.8187 141.856 77.912C141.72 77.5947 141.584 77.3 141.448 77.028C141.312 76.756 141.199 76.5293 141.108 76.348C140.564 75.532 140.406 74.6253 140.632 73.628C141.766 68.9133 142.99 63.9947 144.304 58.872C145.664 53.704 147.251 48.7853 149.064 44.116C149.155 43.844 149.336 43.6627 149.608 43.572C149.926 43.436 150.22 43.436 150.492 43.572C150.855 43.7987 151.172 44.0707 151.444 44.388C151.852 44.9773 152.283 45.612 152.736 46.292C153.235 46.972 153.552 47.6747 153.688 48.4C153.824 49.08 153.598 49.8053 153.008 50.576C152.782 50.8933 152.782 51.12 153.008 51.256C153.099 51.4827 153.099 51.7093 153.008 51.936ZM129.004 48.672C128.959 48.8533 128.936 49.0347 128.936 49.216C128.936 49.352 128.936 49.5107 128.936 49.692V49.828C127.939 52.8653 127.01 55.9707 126.148 59.144C125.287 62.272 124.38 65.3093 123.428 68.256C123.292 68.528 123.224 68.8 123.224 69.072C123.043 70.4773 122.771 72.0867 122.408 73.9C122.091 75.668 121.683 77.2547 121.184 78.66C121.003 79.1133 120.708 79.4533 120.3 79.68C119.892 79.9067 119.462 79.9973 119.008 79.952C118.419 79.816 117.92 79.5893 117.512 79.272C117.15 78.9547 116.787 78.6147 116.424 78.252C115.744 77.436 115.404 76.5293 115.404 75.532C115.45 74.8973 115.563 74.24 115.744 73.56C115.926 72.8347 116.062 72.0413 116.152 71.18C116.47 69.3667 116.878 67.3947 117.376 65.264C117.92 63.088 118.487 60.9347 119.076 58.804C119.666 56.628 120.255 54.6333 120.844 52.82C121.298 51.3693 121.751 50.0093 122.204 48.74C122.703 47.4707 123.156 46.224 123.564 45C123.7 44.6373 123.972 44.3653 124.38 44.184C124.788 43.9573 125.174 43.9347 125.536 44.116C126.216 44.4333 126.806 44.8187 127.304 45.272C127.803 45.7253 128.256 46.2467 128.664 46.836C129.072 47.38 129.186 47.992 129.004 48.672ZM141.516 60.028C141.743 60.3907 141.788 60.776 141.652 61.184C141.516 61.592 141.267 61.8867 140.904 62.068C138.23 63.292 135.532 63.7 132.812 63.292C131.951 63.0653 131.226 62.6573 130.636 62.068C130.319 61.7507 129.979 61.5013 129.616 61.32C129.254 61.0933 128.914 60.844 128.596 60.572C128.234 60.2093 128.098 59.8013 128.188 59.348C128.324 58.8947 128.619 58.6227 129.072 58.532C130.568 58.124 132.155 57.852 133.832 57.716C135.555 57.5347 137.096 57.58 138.456 57.852C139.182 57.9427 139.771 58.2147 140.224 58.668C140.723 59.076 141.154 59.5293 141.516 60.028ZM175.354 48.672C175.354 49.0347 175.286 49.42 175.15 49.828C175.014 50.1907 174.901 50.5987 174.81 51.052C174.765 51.5053 174.697 51.9587 174.606 52.412C174.516 52.8653 174.425 53.2733 174.334 53.636C174.244 54.2253 174.153 54.7693 174.062 55.268C173.972 55.7213 173.881 56.2427 173.79 56.832C173.79 57.0133 173.745 57.172 173.654 57.308C173.609 57.3987 173.541 57.5347 173.45 57.716C173.45 57.8973 173.45 58.0787 173.45 58.26C173.45 58.396 173.428 58.532 173.382 58.668C173.337 58.8493 173.269 59.1213 173.178 59.484C173.133 59.8467 173.088 60.096 173.042 60.232C172.544 62.3173 172.113 64.244 171.75 66.012C171.433 67.78 170.98 69.412 170.39 70.908C170.254 71.2253 170.186 71.588 170.186 71.996C170.096 72.7213 169.937 73.56 169.71 74.512C169.529 75.464 169.302 76.3707 169.03 77.232C168.94 77.64 168.849 78.048 168.758 78.456C168.713 78.864 168.509 79.1813 168.146 79.408C167.33 79.952 166.492 79.9973 165.63 79.544C165.585 79.4533 165.517 79.3853 165.426 79.34C165.336 79.2947 165.245 79.2493 165.154 79.204C164.61 78.796 164.248 78.2973 164.066 77.708C163.93 77.3453 163.794 77.0507 163.658 76.824C163.522 76.5973 163.364 76.3253 163.182 76.008C163.046 75.6 163.024 75.1013 163.114 74.512C163.25 73.9227 163.386 73.4013 163.522 72.948C164.157 70.772 164.792 68.4147 165.426 65.876C166.106 63.292 166.741 60.7533 167.33 58.26C167.648 57.2173 167.852 56.1747 167.942 55.132C168.078 54.044 168.282 52.9333 168.554 51.8C168.69 51.3013 168.781 50.8027 168.826 50.304C168.917 49.76 168.985 49.216 169.03 48.672C169.121 48.3547 169.189 47.992 169.234 47.584C169.28 47.1307 169.302 46.7453 169.302 46.428C169.348 45.612 169.552 45.068 169.914 44.796C170.277 44.524 170.64 44.3653 171.002 44.32C171.682 44.184 172.204 44.2067 172.566 44.388C172.974 44.524 173.428 44.7733 173.926 45.136C174.878 45.816 175.332 46.3827 175.286 46.836C175.286 47.2893 175.309 47.9013 175.354 48.672ZM208.49 78.32C208.49 78.728 208.354 79.068 208.082 79.34C207.765 79.5213 207.425 79.612 207.062 79.612C204.795 79.5213 202.574 79.544 200.398 79.68C198.267 79.8613 196.114 79.9747 193.938 80.02C191.762 80.1107 189.473 79.9747 187.07 79.612C186.209 79.3853 185.551 78.932 185.098 78.252C184.917 77.98 184.735 77.7307 184.554 77.504C184.418 77.2773 184.305 77.028 184.214 76.756C184.169 76.6653 184.169 76.5067 184.214 76.28C184.259 76.008 184.259 75.804 184.214 75.668C184.123 75.3053 184.01 75.124 183.874 75.124C183.738 75.0787 183.67 74.9427 183.67 74.716C183.67 74.308 183.761 73.7413 183.942 73.016C184.123 72.2453 184.327 71.4747 184.554 70.704C184.826 69.9333 185.007 69.344 185.098 68.936C185.551 67.576 185.914 66.1707 186.186 64.72C186.458 63.224 186.775 61.6827 187.138 60.096C187.773 57.4667 188.475 54.9507 189.246 52.548C190.017 50.1453 190.969 47.7653 192.102 45.408C192.329 45.0453 192.442 44.592 192.442 44.048C192.487 43.9573 192.533 43.8667 192.578 43.776C192.623 43.6853 192.669 43.6173 192.714 43.572C192.941 43.028 193.349 42.756 193.938 42.756C194.709 42.892 195.253 43.164 195.57 43.572C195.706 43.6627 195.842 43.7533 195.978 43.844C196.114 43.9347 196.227 44.0253 196.318 44.116C196.635 44.3427 196.907 44.592 197.134 44.864C197.406 45.0907 197.633 45.3853 197.814 45.748C197.905 46.0653 198.063 46.3827 198.29 46.7C198.517 47.0173 198.653 47.3573 198.698 47.72C198.789 48.2187 198.653 48.7173 198.29 49.216C197.927 49.7147 197.678 50.2133 197.542 50.712C197.089 51.9813 196.703 53.4547 196.386 55.132C196.069 56.8093 195.57 58.2373 194.89 59.416C194.709 59.688 194.573 59.96 194.482 60.232C194.437 60.4587 194.369 60.7307 194.278 61.048C194.278 61.5013 194.187 61.9547 194.006 62.408C193.87 62.8613 193.802 63.4053 193.802 64.04C193.802 64.2213 193.711 64.312 193.53 64.312C193.394 64.312 193.281 64.4253 193.19 64.652C193.054 65.876 192.85 67.1453 192.578 68.46C192.351 69.7747 192.057 70.9987 191.694 72.132C191.513 72.4947 191.513 72.8347 191.694 73.152C191.921 73.4693 192.215 73.6507 192.578 73.696C194.21 73.8773 195.91 73.9227 197.678 73.832C199.446 73.696 201.123 73.696 202.71 73.832C204.297 73.9227 205.634 74.444 206.722 75.396C207.085 75.7133 207.289 75.9853 207.334 76.212C207.425 76.3933 207.561 76.552 207.742 76.688C208.15 77.096 208.399 77.64 208.49 78.32ZM241.494 78.32C241.494 78.728 241.358 79.068 241.086 79.34C240.768 79.5213 240.428 79.612 240.066 79.612C237.799 79.5213 235.578 79.544 233.402 79.68C231.271 79.8613 229.118 79.9747 226.942 80.02C224.766 80.1107 222.476 79.9747 220.074 79.612C219.212 79.3853 218.555 78.932 218.102 78.252C217.92 77.98 217.739 77.7307 217.558 77.504C217.422 77.2773 217.308 77.028 217.218 76.756C217.172 76.6653 217.172 76.5067 217.218 76.28C217.263 76.008 217.263 75.804 217.218 75.668C217.127 75.3053 217.014 75.124 216.878 75.124C216.742 75.0787 216.674 74.9427 216.674 74.716C216.674 74.308 216.764 73.7413 216.946 73.016C217.127 72.2453 217.331 71.4747 217.558 70.704C217.83 69.9333 218.011 69.344 218.102 68.936C218.555 67.576 218.918 66.1707 219.19 64.72C219.462 63.224 219.779 61.6827 220.142 60.096C220.776 57.4667 221.479 54.9507 222.25 52.548C223.02 50.1453 223.972 47.7653 225.106 45.408C225.332 45.0453 225.446 44.592 225.446 44.048C225.491 43.9573 225.536 43.8667 225.582 43.776C225.627 43.6853 225.672 43.6173 225.718 43.572C225.944 43.028 226.352 42.756 226.942 42.756C227.712 42.892 228.256 43.164 228.574 43.572C228.71 43.6627 228.846 43.7533 228.982 43.844C229.118 43.9347 229.231 44.0253 229.322 44.116C229.639 44.3427 229.911 44.592 230.138 44.864C230.41 45.0907 230.636 45.3853 230.818 45.748C230.908 46.0653 231.067 46.3827 231.294 46.7C231.52 47.0173 231.656 47.3573 231.702 47.72C231.792 48.2187 231.656 48.7173 231.294 49.216C230.931 49.7147 230.682 50.2133 230.546 50.712C230.092 51.9813 229.707 53.4547 229.39 55.132C229.072 56.8093 228.574 58.2373 227.894 59.416C227.712 59.688 227.576 59.96 227.486 60.232C227.44 60.4587 227.372 60.7307 227.282 61.048C227.282 61.5013 227.191 61.9547 227.01 62.408C226.874 62.8613 226.806 63.4053 226.806 64.04C226.806 64.2213 226.715 64.312 226.534 64.312C226.398 64.312 226.284 64.4253 226.194 64.652C226.058 65.876 225.854 67.1453 225.582 68.46C225.355 69.7747 225.06 70.9987 224.698 72.132C224.516 72.4947 224.516 72.8347 224.698 73.152C224.924 73.4693 225.219 73.6507 225.582 73.696C227.214 73.8773 228.914 73.9227 230.682 73.832C232.45 73.696 234.127 73.696 235.714 73.832C237.3 73.9227 238.638 74.444 239.726 75.396C240.088 75.7133 240.292 75.9853 240.338 76.212C240.428 76.3933 240.564 76.552 240.746 76.688C241.154 77.096 241.403 77.64 241.494 78.32ZM263.21 48.672C263.21 49.0347 263.142 49.42 263.006 49.828C262.87 50.1907 262.756 50.5987 262.666 51.052C262.62 51.5053 262.552 51.9587 262.462 52.412C262.371 52.8653 262.28 53.2733 262.19 53.636C262.099 54.2253 262.008 54.7693 261.918 55.268C261.827 55.7213 261.736 56.2427 261.646 56.832C261.646 57.0133 261.6 57.172 261.51 57.308C261.464 57.3987 261.396 57.5347 261.306 57.716C261.306 57.8973 261.306 58.0787 261.306 58.26C261.306 58.396 261.283 58.532 261.238 58.668C261.192 58.8493 261.124 59.1213 261.034 59.484C260.988 59.8467 260.943 60.096 260.898 60.232C260.399 62.3173 259.968 64.244 259.606 66.012C259.288 67.78 258.835 69.412 258.246 70.908C258.11 71.2253 258.042 71.588 258.042 71.996C257.951 72.7213 257.792 73.56 257.566 74.512C257.384 75.464 257.158 76.3707 256.886 77.232C256.795 77.64 256.704 78.048 256.614 78.456C256.568 78.864 256.364 79.1813 256.002 79.408C255.186 79.952 254.347 79.9973 253.486 79.544C253.44 79.4533 253.372 79.3853 253.282 79.34C253.191 79.2947 253.1 79.2493 253.01 79.204C252.466 78.796 252.103 78.2973 251.922 77.708C251.786 77.3453 251.65 77.0507 251.514 76.824C251.378 76.5973 251.219 76.3253 251.038 76.008C250.902 75.6 250.879 75.1013 250.97 74.512C251.106 73.9227 251.242 73.4013 251.378 72.948C252.012 70.772 252.647 68.4147 253.282 65.876C253.962 63.292 254.596 60.7533 255.186 58.26C255.503 57.2173 255.707 56.1747 255.798 55.132C255.934 54.044 256.138 52.9333 256.41 51.8C256.546 51.3013 256.636 50.8027 256.682 50.304C256.772 49.76 256.84 49.216 256.886 48.672C256.976 48.3547 257.044 47.992 257.09 47.584C257.135 47.1307 257.158 46.7453 257.158 46.428C257.203 45.612 257.407 45.068 257.77 44.796C258.132 44.524 258.495 44.3653 258.858 44.32C259.538 44.184 260.059 44.2067 260.422 44.388C260.83 44.524 261.283 44.7733 261.782 45.136C262.734 45.816 263.187 46.3827 263.142 46.836C263.142 47.2893 263.164 47.9013 263.21 48.672Z" fill="#ECB76A"/>
<path d="M6.49219 99.4844V104H4.19531V99.4844L0.273438 92.9922H2.6875L5.32812 97.6484L8 92.9922H10.4141L6.49219 99.4844ZM24.0453 98.4453C24.0453 99.5911 23.8135 100.594 23.35 101.453C22.8917 102.307 22.2432 102.971 21.4047 103.445C20.5714 103.919 19.5922 104.156 18.4672 104.156C17.3161 104.156 16.3266 103.927 15.4984 103.469C14.6703 103.005 14.0349 102.346 13.5922 101.492C13.1495 100.638 12.9281 99.6224 12.9281 98.4453C12.9281 97.2682 13.1469 96.2604 13.5844 95.4219C14.0271 94.5833 14.6625 93.9427 15.4906 93.5C16.324 93.0521 17.3214 92.8281 18.4828 92.8281C19.6495 92.8281 20.6469 93.0547 21.475 93.5078C22.3031 93.9557 22.9385 94.599 23.3813 95.4375C23.824 96.276 24.0453 97.2786 24.0453 98.4453ZM21.6938 98.4453C21.6938 97.2578 21.4125 96.3281 20.85 95.6562C20.2875 94.9792 19.4984 94.6406 18.4828 94.6406C17.4516 94.6406 16.6547 94.9766 16.0922 95.6484C15.5297 96.3151 15.2484 97.2474 15.2484 98.4453C15.2484 99.2474 15.3786 99.9401 15.6391 100.523C15.8995 101.107 16.2693 101.557 16.7484 101.875C17.2328 102.188 17.8057 102.344 18.4672 102.344C19.4984 102.344 20.2927 102.005 20.85 101.328C21.4125 100.651 21.6938 99.6901 21.6938 98.4453ZM31.9734 104.156C30.963 104.156 30.1089 103.992 29.4109 103.664C28.713 103.331 28.1844 102.846 27.825 102.211C27.4656 101.57 27.2859 100.792 27.2859 99.875V92.9922H29.5906V99.6953C29.5906 100.565 29.7964 101.227 30.2078 101.68C30.6245 102.128 31.2339 102.352 32.0359 102.352C32.8589 102.352 33.4917 102.117 33.9344 101.648C34.3771 101.174 34.5984 100.497 34.5984 99.6172V92.9922H36.9031V99.7578C36.9031 100.685 36.7078 101.477 36.3172 102.133C35.9318 102.789 35.3719 103.292 34.6375 103.641C33.9031 103.984 33.0151 104.156 31.9734 104.156ZM42.8625 99.8203V104H40.5578V92.9922H46.0578C47.3703 92.9922 48.3833 93.276 49.0969 93.8438C49.8104 94.4062 50.1672 95.2161 50.1672 96.2734C50.1672 97.0443 49.9484 97.7109 49.5109 98.2734C49.0734 98.8307 48.4823 99.1979 47.7375 99.375L50.7141 104H48.1203L45.5656 99.8203H42.8625ZM47.8469 96.3672C47.8469 95.8411 47.6776 95.4453 47.3391 95.1797C47.0005 94.9141 46.4927 94.7812 45.8156 94.7812H42.8625V98.0312H45.8781C46.524 98.0312 47.0135 97.8854 47.3469 97.5938C47.6802 97.3021 47.8469 96.8932 47.8469 96.3672ZM65 102.352C65.599 102.352 66.1797 102.266 66.7422 102.094C67.3047 101.917 67.7396 101.693 68.0469 101.422V99.8984H65.3594V98.1953H70.1562V102.242C69.5729 102.841 68.8125 103.31 67.875 103.648C66.9427 103.987 65.9635 104.156 64.9375 104.156C63.7448 104.156 62.7318 103.935 61.8984 103.492C61.0703 103.044 60.4401 102.396 60.0078 101.547C59.5755 100.693 59.3594 99.6589 59.3594 98.4453C59.3594 96.6328 59.8438 95.2448 60.8125 94.2812C61.7812 93.3125 63.1745 92.8281 64.9922 92.8281C66.2839 92.8281 67.3411 93.0677 68.1641 93.5469C68.987 94.0208 69.5729 94.737 69.9219 95.6953L67.7969 96.3359C67.5677 95.7786 67.2083 95.3568 66.7188 95.0703C66.2292 94.7839 65.6536 94.6406 64.9922 94.6406C63.9089 94.6406 63.0859 94.9688 62.5234 95.625C61.9609 96.2812 61.6797 97.2214 61.6797 98.4453C61.6797 99.6901 61.9688 100.654 62.5469 101.336C63.1302 102.013 63.9479 102.352 65 102.352ZM84.5297 98.4453C84.5297 99.5911 84.2979 100.594 83.8344 101.453C83.376 102.307 82.7276 102.971 81.8891 103.445C81.0557 103.919 80.0766 104.156 78.9516 104.156C77.8005 104.156 76.8109 103.927 75.9828 103.469C75.1547 103.005 74.5193 102.346 74.0766 101.492C73.6339 100.638 73.4125 99.6224 73.4125 98.4453C73.4125 97.2682 73.6312 96.2604 74.0687 95.4219C74.5115 94.5833 75.1469 93.9427 75.975 93.5C76.8083 93.0521 77.8057 92.8281 78.9672 92.8281C80.1339 92.8281 81.1312 93.0547 81.9594 93.5078C82.7875 93.9557 83.4229 94.599 83.8656 95.4375C84.3083 96.276 84.5297 97.2786 84.5297 98.4453ZM82.1781 98.4453C82.1781 97.2578 81.8969 96.3281 81.3344 95.6562C80.7719 94.9792 79.9828 94.6406 78.9672 94.6406C77.9359 94.6406 77.1391 94.9766 76.5766 95.6484C76.0141 96.3151 75.7328 97.2474 75.7328 98.4453C75.7328 99.2474 75.863 99.9401 76.1234 100.523C76.3839 101.107 76.7536 101.557 77.2328 101.875C77.7172 102.188 78.2901 102.344 78.9516 102.344C79.9828 102.344 80.7771 102.005 81.3344 101.328C81.8969 100.651 82.1781 99.6901 82.1781 98.4453ZM92.4578 104.156C91.4474 104.156 90.5932 103.992 89.8953 103.664C89.1974 103.331 88.6687 102.846 88.3094 102.211C87.95 101.57 87.7703 100.792 87.7703 99.875V92.9922H90.075V99.6953C90.075 100.565 90.2807 101.227 90.6922 101.68C91.1089 102.128 91.7182 102.352 92.5203 102.352C93.3432 102.352 93.976 102.117 94.4187 101.648C94.8615 101.174 95.0828 100.497 95.0828 99.6172V92.9922H97.3875V99.7578C97.3875 100.685 97.1922 101.477 96.8016 102.133C96.4161 102.789 95.8562 103.292 95.1219 103.641C94.3875 103.984 93.4995 104.156 92.4578 104.156ZM103.347 99.8203V104H101.042V92.9922H106.542C107.855 92.9922 108.868 93.276 109.581 93.8438C110.295 94.4062 110.652 95.2161 110.652 96.2734C110.652 97.0443 110.433 97.7109 109.995 98.2734C109.558 98.8307 108.967 99.1979 108.222 99.375L111.198 104H108.605L106.05 99.8203H103.347ZM108.331 96.3672C108.331 95.8411 108.162 95.4453 107.823 95.1797C107.485 94.9141 106.977 94.7812 106.3 94.7812H103.347V98.0312H106.363C107.008 98.0312 107.498 97.8854 107.831 97.5938C108.165 97.3021 108.331 96.8932 108.331 96.3672ZM116.252 97.3281V104H114.205V92.9922H117.291L119.259 99.1484C119.348 99.4922 119.439 99.8385 119.533 100.188C119.627 100.531 119.718 100.875 119.806 101.219C119.864 101.021 119.918 100.826 119.97 100.633C120.022 100.435 120.074 100.237 120.127 100.039C120.184 99.8411 120.241 99.6458 120.298 99.4531L122.322 92.9922H125.392V104H123.345V97.3281C123.345 97.1771 123.351 96.875 123.361 96.4219C123.377 95.9635 123.397 95.4661 123.423 94.9297C123.241 95.6276 123.08 96.2214 122.939 96.7109C122.804 97.2005 122.692 97.5833 122.603 97.8594L120.619 104H118.978L116.994 97.8594L116.158 94.9297C116.189 95.5339 116.213 96.0365 116.228 96.4375C116.244 96.8333 116.252 97.1302 116.252 97.3281ZM138.109 102.219V104H129.133V92.9922H137.789V94.7734H131.438V97.5391H137.312V99.3203H131.438V102.219H138.109ZM146.373 94.7734V104H144.069V94.7734H140.514V92.9922H149.936V94.7734H146.373ZM161.144 99.9609V104H158.839V92.9922H166.956V94.7734H161.144V98.1797H166.777V99.9609H161.144ZM180.923 98.4453C180.923 99.5911 180.692 100.594 180.228 101.453C179.77 102.307 179.121 102.971 178.283 103.445C177.449 103.919 176.47 104.156 175.345 104.156C174.194 104.156 173.205 103.927 172.377 103.469C171.548 103.005 170.913 102.346 170.47 101.492C170.028 100.638 169.806 99.6224 169.806 98.4453C169.806 97.2682 170.025 96.2604 170.462 95.4219C170.905 94.5833 171.541 93.9427 172.369 93.5C173.202 93.0521 174.199 92.8281 175.361 92.8281C176.528 92.8281 177.525 93.0547 178.353 93.5078C179.181 93.9557 179.817 94.599 180.259 95.4375C180.702 96.276 180.923 97.2786 180.923 98.4453ZM178.572 98.4453C178.572 97.2578 178.291 96.3281 177.728 95.6562C177.166 94.9792 176.377 94.6406 175.361 94.6406C174.33 94.6406 173.533 94.9766 172.97 95.6484C172.408 96.3151 172.127 97.2474 172.127 98.4453C172.127 99.2474 172.257 99.9401 172.517 100.523C172.778 101.107 173.147 101.557 173.627 101.875C174.111 102.188 174.684 102.344 175.345 102.344C176.377 102.344 177.171 102.005 177.728 101.328C178.291 100.651 178.572 99.6901 178.572 98.4453ZM194.977 98.4453C194.977 99.5911 194.745 100.594 194.281 101.453C193.823 102.307 193.174 102.971 192.336 103.445C191.503 103.919 190.523 104.156 189.398 104.156C188.247 104.156 187.258 103.927 186.43 103.469C185.602 103.005 184.966 102.346 184.523 101.492C184.081 100.638 183.859 99.6224 183.859 98.4453C183.859 97.2682 184.078 96.2604 184.516 95.4219C184.958 94.5833 185.594 93.9427 186.422 93.5C187.255 93.0521 188.253 92.8281 189.414 92.8281C190.581 92.8281 191.578 93.0547 192.406 93.5078C193.234 93.9557 193.87 94.599 194.312 95.4375C194.755 96.276 194.977 97.2786 194.977 98.4453ZM192.625 98.4453C192.625 97.2578 192.344 96.3281 191.781 95.6562C191.219 94.9792 190.43 94.6406 189.414 94.6406C188.383 94.6406 187.586 94.9766 187.023 95.6484C186.461 96.3151 186.18 97.2474 186.18 98.4453C186.18 99.2474 186.31 99.9401 186.57 100.523C186.831 101.107 187.201 101.557 187.68 101.875C188.164 102.188 188.737 102.344 189.398 102.344C190.43 102.344 191.224 102.005 191.781 101.328C192.344 100.651 192.625 99.6901 192.625 98.4453ZM208.139 98.4141C208.139 99.5911 207.91 100.596 207.452 101.43C206.998 102.263 206.368 102.901 205.561 103.344C204.759 103.781 203.832 104 202.78 104H198.327V92.9922H202.311C204.165 92.9922 205.6 93.4609 206.616 94.3984C207.631 95.3307 208.139 96.6693 208.139 98.4141ZM205.819 98.4141C205.819 97.2318 205.511 96.3307 204.897 95.7109C204.282 95.0859 203.405 94.7734 202.264 94.7734H200.631V102.219H202.584C203.246 102.219 203.816 102.065 204.295 101.758C204.78 101.445 205.155 101.005 205.42 100.438C205.686 99.8698 205.819 99.1953 205.819 98.4141ZM226.597 96.4766C226.597 97.1901 226.433 97.8229 226.105 98.375C225.782 98.9219 225.321 99.3516 224.722 99.6641C224.123 99.9714 223.409 100.125 222.581 100.125H219.847V104H217.542V92.9922H222.488C223.805 92.9922 224.818 93.2969 225.527 93.9062C226.24 94.5104 226.597 95.3672 226.597 96.4766ZM224.277 96.5156C224.277 95.3594 223.594 94.7812 222.23 94.7812H219.847V98.3516H222.292C222.928 98.3516 223.417 98.1953 223.761 97.8828C224.105 97.5651 224.277 97.1094 224.277 96.5156ZM238.025 102.219V104H229.814V92.9922H232.119V102.219H238.025ZM245.773 104.156C244.763 104.156 243.909 103.992 243.211 103.664C242.513 103.331 241.984 102.846 241.625 102.211C241.266 101.57 241.086 100.792 241.086 99.875V92.9922H243.391V99.6953C243.391 100.565 243.596 101.227 244.008 101.68C244.424 102.128 245.034 102.352 245.836 102.352C246.659 102.352 247.292 102.117 247.734 101.648C248.177 101.174 248.398 100.497 248.398 99.6172V92.9922H250.703V99.7578C250.703 100.685 250.508 101.477 250.117 102.133C249.732 102.789 249.172 103.292 248.438 103.641C247.703 103.984 246.815 104.156 245.773 104.156ZM259.584 102.352C260.183 102.352 260.764 102.266 261.327 102.094C261.889 101.917 262.324 101.693 262.631 101.422V99.8984H259.944V98.1953H264.741V102.242C264.157 102.841 263.397 103.31 262.459 103.648C261.527 103.987 260.548 104.156 259.522 104.156C258.329 104.156 257.316 103.935 256.483 103.492C255.655 103.044 255.024 102.396 254.592 101.547C254.16 100.693 253.944 99.6589 253.944 98.4453C253.944 96.6328 254.428 95.2448 255.397 94.2812C256.366 93.3125 257.759 92.8281 259.577 92.8281C260.868 92.8281 261.926 93.0677 262.748 93.5469C263.571 94.0208 264.157 94.737 264.506 95.6953L262.381 96.3359C262.152 95.7786 261.793 95.3568 261.303 95.0703C260.814 94.7839 260.238 94.6406 259.577 94.6406C258.493 94.6406 257.67 94.9688 257.108 95.625C256.545 96.2812 256.264 97.2214 256.264 98.4453C256.264 99.6901 256.553 100.654 257.131 101.336C257.715 102.013 258.532 102.352 259.584 102.352Z" fill="white" fill-opacity="0.7"/>
</svg>
